<svg xmlns="http://www.w3.org/2000/svg" width="1280" height="720" viewBox="0 0 1280 720">
  <defs>
    <style>
      .cls-1 {
        fill: #020b3a;
        fill-rule: evenodd;
      }
    </style>
  </defs>
  <path id="loading..." class="cls-1" d="M560.277,340.891h-6.172V370.5h6.172V340.891ZM583,368.1a10.578,10.578,0,0,0,2.92-7.871,9.966,9.966,0,0,0-2.832-7.413,10.623,10.623,0,0,0-7.813-2.8,11.219,11.219,0,0,0-8.027,2.8,11.59,11.59,0,0,0-.107,15.372,10.75,10.75,0,0,0,7.861,2.8A10.872,10.872,0,0,0,583,368.1Zm-3.369-7.754q0,5.917-4.434,5.918-4.648,0-4.648-5.762a6.629,6.629,0,0,1,1.211-4.258,4.118,4.118,0,0,1,3.4-1.5q4.473,0,4.473,5.606h0Zm26.933-1.8q0-8.535-8.554-8.535a18.512,18.512,0,0,0-4.073.508,15.291,15.291,0,0,0-3.525,1.171v4.649a12.137,12.137,0,0,1,6.8-2.129q3.555,0,3.555,3.281l-5.43.723q-6.9.9-6.895,6.719a5.914,5.914,0,0,0,1.67,4.4,6.233,6.233,0,0,0,4.58,1.65,6.517,6.517,0,0,0,5.957-3.359h0.079V370.5h5.839V358.547Zm-6.894,6.865a3.653,3.653,0,0,1-2.832,1.2,2.812,2.812,0,0,1-1.983-.674,2.243,2.243,0,0,1-.732-1.728q0-2.324,3.008-2.715l3.633-.469v1.348A4.339,4.339,0,0,1,599.672,365.412Zm31.348-24.521h-6.172v11.894H624.77q-1.524-2.774-5.391-2.773a8.219,8.219,0,0,0-6.6,2.988,11.927,11.927,0,0,0-2.519,7.949q0,4.746,2.285,7.393a7.582,7.582,0,0,0,6.035,2.646,6.921,6.921,0,0,0,6.192-3.242h0.078V370.5h6.172V340.891Zm-7.237,23.867a3.952,3.952,0,0,1-6.142.078,6.47,6.47,0,0,1-1.114-4.063,7.474,7.474,0,0,1,1.153-4.423,4,4,0,0,1,6.152-.323,4.737,4.737,0,0,1,1.133,3.243v1.5A6.269,6.269,0,0,1,623.783,364.758Zm18.125-18.32a2.978,2.978,0,0,0,.987-2.305,2.9,2.9,0,0,0-.987-2.266,4.178,4.178,0,0,0-5.127,0,2.883,2.883,0,0,0-1,2.266,2.988,2.988,0,0,0,1,2.275,3.6,3.6,0,0,0,2.559.928A3.663,3.663,0,0,0,641.908,346.438Zm0.479,4.062h-6.172v20h6.172v-20Zm24.511,7.754q0-8.243-6.64-8.242a7.071,7.071,0,0,0-6.426,3.652h-0.078V350.5h-6.172v20h6.172V359.094a4.688,4.688,0,0,1,1.035-3.125,3.293,3.293,0,0,1,2.637-1.231q3.319,0,3.32,4.649V370.5H666.9V358.254Zm24.493-7.754h-6.172v2.324h-0.078a6.074,6.074,0,0,0-5.469-2.812A8.16,8.16,0,0,0,673.09,353a12.172,12.172,0,0,0-2.5,8.066,10.928,10.928,0,0,0,2.246,7.227,7.493,7.493,0,0,0,6.074,2.695,6.893,6.893,0,0,0,6.231-3.359h0.078v1.582a5.921,5.921,0,0,1-1.719,4.482,6.709,6.709,0,0,1-4.844,1.651,12.266,12.266,0,0,1-6.23-1.8v5.195a14.8,14.8,0,0,0,6.406,1.153q6.113,0,9.336-3.057t3.223-8.623V350.5Zm-7.276,14.287a3.778,3.778,0,0,1-3.1,1.475,3.627,3.627,0,0,1-3.047-1.455,6.353,6.353,0,0,1-1.114-3.955,7.535,7.535,0,0,1,1.172-4.512,3.777,3.777,0,0,1,3.223-1.6,3.633,3.633,0,0,1,2.92,1.338,4.867,4.867,0,0,1,1.123,3.233v1.582A6.044,6.044,0,0,1,684.115,364.787Zm17.852,5.293a3.145,3.145,0,0,0,.019-4.629,3.715,3.715,0,0,0-2.588-.908,3.862,3.862,0,0,0-2.607.9,2.9,2.9,0,0,0-1.045,2.305,3.015,3.015,0,0,0,1.016,2.305,3.6,3.6,0,0,0,2.539.937A3.869,3.869,0,0,0,701.967,370.08Zm10.84,0a3.145,3.145,0,0,0,.019-4.629,3.717,3.717,0,0,0-2.588-.908,3.86,3.86,0,0,0-2.607.9,2.9,2.9,0,0,0-1.045,2.305,3.011,3.011,0,0,0,1.016,2.305,3.6,3.6,0,0,0,2.539.937A3.871,3.871,0,0,0,712.807,370.08Zm10.839,0a3.144,3.144,0,0,0,.02-4.629,3.717,3.717,0,0,0-2.588-.908,3.86,3.86,0,0,0-2.607.9,2.9,2.9,0,0,0-1.045,2.305,3.014,3.014,0,0,0,1.015,2.305,3.6,3.6,0,0,0,2.539.937A3.867,3.867,0,0,0,723.646,370.08Z"/>
</svg>
