<svg xmlns="http://www.w3.org/2000/svg" width="2100" height="1500" viewBox="0 0 2100 1500">
  <defs>
    <style>
      .cls-1 {
        fill: none;
        stroke: #020b3a;
        stroke-width: 14px;
      }

      .cls-2 {
        fill: #020b3a;
        fill-rule: evenodd;
      }
    </style>
  </defs>
  <rect class="cls-1" x="42" y="512" width="2016" height="477"/>
  <path id="ConNEXT" class="cls-2" d="M338.557,831.975q-34.5,20.217-76.025,20.214-43.506,0-69.214-27.136T167.61,752.214q0-47.678,27.246-75.586t71.631-27.905q40.426,0,72.07,18.9V599.284q-31.641-11.643-77.783-11.645-74.487,0-121.179,47.021T92.9,757.268q0,70.974,41.528,113.6t114.038,42.627q55.587,0,90.088-16.7V831.975Zm245.325,49q32.846-32.517,32.849-88.55,0-51.853-31.86-83.386T496.98,677.507q-56.912,0-90.308,31.531t-33.4,87.341q0,54.052,32.19,85.583t88.44,31.531Q551.032,913.493,583.882,880.974Zm-37.9-87.232q0,66.577-49.878,66.577-52.3,0-52.3-64.819,0-30.981,13.623-47.9t38.233-16.919q50.313,0,50.317,63.061h0Zm333.1-23.511q0-92.722-74.707-92.724-47.46,0-72.29,41.089h-0.879V683H661.775V908h69.433V779.68q0-21.31,11.646-35.157a37.061,37.061,0,0,1,29.663-13.842q37.351,0,37.354,52.295V908h69.213V770.231ZM1224.27,592.912h-67.01V767.155q0,32.3,1.76,43.286h-0.88q-7.26-12.74-15.82-25.708L1017.29,592.912H940.828V908h67.012V734.855q0-34.276-1.75-50.976h0.88q4.38,8.79,15.82,26.147L1152.64,908h71.63V592.912Zm261.04,257.52H1367.32V778.361h103.05V720.793H1367.32V650.7h110.74V592.912H1296.35V908h188.96V850.432Zm165.72-101.294,94.48-156.226h-79.1l-50.1,93.6q-7.245,18.24-9.89,27.465h-0.88a163.579,163.579,0,0,0-9.44-26.586l-45.05-94.483H1464.7l91.85,157.544L1456.13,908h84.6l54.49-101.733q5.7-14.72,7.25-21.973h0.88q3.285,15.383,6.37,21.094L1663.99,908h84.16Zm355.95-156.226H1756.5V650.7h89.43V908h71.19V650.7h89.86V592.912Z"/>
</svg>
